<?xml version="1.0" encoding="utf-8"?>
<!-- Generator: Adobe Illustrator 23.0.3, SVG Export Plug-In . SVG Version: 6.00 Build 0)  -->
<svg version="1.1" id="Ebene_1" xmlns="http://www.w3.org/2000/svg" xmlns:xlink="http://www.w3.org/1999/xlink" x="0px" y="0px"
	 viewBox="0 0 256 256" style="enable-background:new 0 0 256 256;" xml:space="preserve">
<style type="text/css">
	.st0{fill:url(#SVGID_1_);}
</style>
<linearGradient id="SVGID_1_" gradientUnits="userSpaceOnUse" x1="0" y1="127.4209" x2="256" y2="127.4209">
	<stop  offset="0" style="stop-color:#5EBBA2"/>
	<stop  offset="0.3769" style="stop-color:#519CB1"/>
	<stop  offset="0.8" style="stop-color:#4D76B2"/>
	<stop  offset="1" style="stop-color:#4D66AE"/>
</linearGradient>
<path class="st0" d="M245.86,13.87c-6.08-5.74-13.86-8.27-23.32-7.6c-6.08,0.68-11.83,2.87-17.24,6.59
	c-5.41,3.72-11.49,7.69-18.25,11.91c-6.76,4.23-14.79,8.11-24.08,11.65c-9.3,3.55-20.87,5.32-34.72,5.32
	c-14.19,0-25.94-1.69-35.23-5.07c-9.3-3.37-17.32-7.17-24.08-11.4c-6.76-4.22-12.85-8.27-18.25-12.16
	c-5.41-3.88-11.15-6.16-17.24-6.84c-4.4-0.33-8.62,0.17-12.67,1.52c-4.06,1.35-7.6,3.47-10.65,6.33C7.1,16.99,4.64,20.29,2.79,24
	C0.93,27.72,0,31.77,0,36.16c0,6.42,1.94,11.99,5.83,16.72c3.88,4.73,8.11,10.13,12.67,16.21c4.56,6.08,8.78,13.6,12.67,22.55
	c3.88,8.95,5.83,20.86,5.83,35.72c0,14.87-1.95,26.85-5.83,35.97c-3.89,9.12-8.11,16.72-12.67,22.8
	c-4.56,6.08-8.79,11.4-12.67,15.96C1.94,206.66,0,212.16,0,218.57c0,8.79,3.21,16.13,9.63,22.04c6.42,5.91,14.36,8.53,23.83,7.85
	c6.08-0.33,11.83-2.45,17.24-6.33c5.4-3.88,11.48-7.93,18.25-12.16c6.76-4.22,14.78-8.11,24.08-11.65
	c9.29-3.55,21.04-5.32,35.23-5.32c13.85,0,25.43,1.69,34.72,5.07c9.29,3.38,17.31,7.27,24.08,11.65
	c6.76,4.39,12.84,8.45,18.25,12.16c5.4,3.72,11.15,5.91,17.24,6.59c9.8,1.01,17.82-1.52,24.08-7.6c6.25-6.08,9.38-13.51,9.38-22.29
	c0-6.41-1.95-11.91-5.83-16.47c-3.89-4.56-8.11-9.88-12.67-15.96c-4.56-6.08-8.79-13.68-12.67-22.8
	c-3.89-9.12-5.83-21.11-5.83-35.97c0-14.86,1.94-26.77,5.83-35.72c3.88-8.95,8.11-16.47,12.67-22.55
	c4.56-6.08,8.78-11.48,12.67-16.21c3.88-4.73,5.83-10.3,5.83-16.72C255.32,27.04,251.95,19.61,245.86,13.87"/>
</svg>
